<svg width="127" height="19" viewBox="0 0 127 19" fill="none" xmlns="http://www.w3.org/2000/svg">
<path d="M5.696 17.952C4.576 17.952 3.608 17.728 2.792 17.28C1.992 16.816 1.384 16.2 0.968 15.432C0.568 14.664 0.368 13.816 0.368 12.888C0.368 12.44 0.584 12.216 1.016 12.216C1.448 12.216 1.664 12.408 1.664 12.792C1.664 14.024 2.032 14.992 2.768 15.696C3.504 16.4 4.48 16.752 5.696 16.752C6.752 16.752 7.6 16.504 8.24 16.008C8.896 15.496 9.224 14.768 9.224 13.824C9.224 12.832 8.872 12.072 8.168 11.544C7.48 11 6.456 10.536 5.096 10.152C4.232 9.912 3.472 9.656 2.816 9.384C2.176 9.096 1.6 8.648 1.088 8.04C0.576 7.432 0.32 6.632 0.32 5.64C0.32 4.744 0.552 3.944 1.016 3.24C1.48 2.536 2.104 1.992 2.888 1.608C3.672 1.224 4.52 1.032 5.432 1.032C6.44 1.032 7.32 1.248 8.072 1.68C8.824 2.096 9.392 2.656 9.776 3.36C10.176 4.048 10.376 4.784 10.376 5.568C10.376 6.016 10.168 6.24 9.752 6.24C9.32 6.24 9.104 6.04 9.104 5.64C9.104 4.664 8.76 3.856 8.072 3.216C7.4 2.576 6.52 2.256 5.432 2.256C4.264 2.256 3.336 2.576 2.648 3.216C1.96 3.856 1.616 4.664 1.616 5.64C1.616 6.328 1.8 6.888 2.168 7.32C2.536 7.736 3 8.064 3.56 8.304C4.12 8.544 4.888 8.808 5.864 9.096C6.696 9.336 7.432 9.616 8.072 9.936C8.712 10.24 9.28 10.712 9.776 11.352C10.272 11.992 10.52 12.808 10.52 13.8C10.52 15.064 10.072 16.072 9.176 16.824C8.28 17.576 7.12 17.952 5.696 17.952ZM21.0123 17.784C19.5883 17.784 18.2763 17.504 17.0763 16.944C15.8763 16.384 14.9083 15.504 14.1723 14.304C13.4363 13.104 13.0683 11.6 13.0683 9.792C13.0683 8.112 13.3883 6.608 14.0283 5.28C14.6843 3.952 15.5963 2.92 16.7643 2.184C17.9483 1.432 19.3163 1.056 20.8683 1.056C22.4203 1.056 23.8363 1.432 25.1163 2.184C26.3963 2.936 27.4043 3.984 28.1403 5.328C28.8923 6.672 29.2683 8.192 29.2683 9.888C29.2683 11.648 28.8763 13.12 28.0923 14.304C27.3243 15.488 26.3083 16.368 25.0443 16.944C23.7963 17.504 22.4523 17.784 21.0123 17.784ZM21.1083 16.56C22.2283 16.56 23.3083 16.328 24.3483 15.864C25.4043 15.4 26.2683 14.664 26.9403 13.656C27.6283 12.648 27.9723 11.368 27.9723 9.816C27.9723 8.376 27.6683 7.088 27.0603 5.952C26.4523 4.8 25.6123 3.904 24.5403 3.264C23.4843 2.608 22.2923 2.28 20.9643 2.28C19.6843 2.28 18.5403 2.592 17.5323 3.216C16.5403 3.824 15.7643 4.688 15.2043 5.808C14.6443 6.928 14.3643 8.216 14.3643 9.672C14.3643 11.336 14.7083 12.68 15.3963 13.704C16.0843 14.728 16.9403 15.464 17.9643 15.912C18.9883 16.344 20.0363 16.56 21.1083 16.56ZM42.9074 1.224C43.2594 1.24 43.4354 1.44 43.4354 1.824C43.4354 2.208 43.2434 2.4 42.8594 2.4H41.2994C41.2354 4.048 41.2034 6.368 41.2034 9.36V11.784C41.2034 13.784 40.7474 15.32 39.8354 16.392C38.9394 17.448 37.7154 17.976 36.1634 17.976C34.7714 17.976 33.6274 17.52 32.7314 16.608C31.8514 15.696 31.4114 14.128 31.4114 11.904C31.4114 11.664 31.4514 11.488 31.5314 11.376C31.6274 11.248 31.7954 11.184 32.0354 11.184C32.2594 11.184 32.4194 11.248 32.5154 11.376C32.6274 11.488 32.6914 11.664 32.7074 11.904C32.7234 13.552 33.0194 14.776 33.5954 15.576C34.1714 16.36 35.0194 16.752 36.1394 16.752C37.2594 16.752 38.1634 16.352 38.8514 15.552C39.5394 14.752 39.8834 13.48 39.8834 11.736C39.8834 7.816 39.9314 4.704 40.0274 2.4L38.0354 2.472C37.8434 2.472 37.6914 2.424 37.5794 2.328C37.4674 2.216 37.4114 2.064 37.4114 1.872C37.4114 1.696 37.4514 1.56 37.5314 1.464C37.6274 1.368 37.7474 1.312 37.8914 1.296C38.5474 1.232 39.4114 1.2 40.4834 1.2H41.9474C42.4434 1.2 42.7634 1.208 42.9074 1.224ZM57.8681 9.888C57.9001 12.672 57.9161 15.192 57.9161 17.448C57.9161 17.848 57.7001 18.048 57.2681 18.048C57.0441 18.048 56.8761 17.992 56.7641 17.88C56.6681 17.768 56.6201 17.592 56.6201 17.352V14.928C56.1401 15.824 55.4281 16.552 54.4841 17.112C53.5561 17.656 52.4761 17.928 51.2441 17.928C49.9321 17.928 48.8601 17.624 48.0281 17.016C47.2121 16.408 46.6281 15.64 46.2761 14.712C45.9241 13.784 45.7481 12.792 45.7481 11.736C45.7481 10.6 45.7561 9.608 45.7721 8.76C45.7881 7.896 45.8041 7.176 45.8201 6.6C45.8841 4.52 45.9161 2.896 45.9161 1.728C45.9161 1.36 46.1241 1.176 46.5401 1.176C46.9881 1.176 47.2121 1.376 47.2121 1.776C47.2121 2.544 47.1961 3.408 47.1641 4.368C47.1481 5.328 47.1401 6.048 47.1401 6.528C47.0921 8.304 47.0681 10.04 47.0681 11.736C47.0681 13.32 47.4441 14.544 48.1961 15.408C48.9481 16.272 50.0121 16.704 51.3881 16.704C52.4601 16.704 53.3881 16.448 54.1721 15.936C54.9561 15.408 55.5481 14.76 55.9481 13.992C56.3641 13.208 56.5721 12.448 56.5721 11.712L56.5241 7.656C56.5241 6.6 56.5081 4.6 56.4761 1.656C56.4761 1.448 56.5161 1.288 56.5961 1.176C56.6921 1.064 56.8521 1.008 57.0761 1.008C57.5401 1.008 57.7721 1.232 57.7721 1.68C57.7721 3.552 57.7961 5.664 57.8441 8.016L57.8681 9.888ZM81.3989 9.84C81.9109 9.84 82.1669 10.048 82.1669 10.464C82.1669 10.864 81.9189 11.064 81.4229 11.064L80.7029 11.04L80.8709 17.352C80.8869 17.56 80.8389 17.728 80.7269 17.856C80.6309 17.968 80.4789 18.024 80.2709 18.024C79.8389 18.024 79.6069 17.808 79.5749 17.376L79.3829 11.04L70.8869 10.872L70.3349 17.664C70.3189 17.984 70.1109 18.144 69.7109 18.144C69.2309 18.144 69.0069 17.944 69.0389 17.544L69.5909 10.872L68.7989 10.848C68.6069 10.848 68.4469 10.8 68.3189 10.704C68.1909 10.592 68.1269 10.44 68.1269 10.248C68.1269 10.056 68.1909 9.912 68.3189 9.816C68.4629 9.704 68.6309 9.648 68.8229 9.648L69.6869 9.672L70.3589 1.296C70.3749 1.088 70.4469 0.935999 70.5749 0.839999C70.7029 0.727999 70.8549 0.671999 71.0309 0.671999C71.2549 0.671999 71.4149 0.743999 71.5109 0.887999C71.6229 1.016 71.6709 1.184 71.6549 1.392L70.9829 9.672L79.3589 9.816L79.1189 1.344C79.1189 1.136 79.1669 0.975999 79.2629 0.863999C79.3749 0.735999 79.5349 0.671999 79.7429 0.671999C79.9509 0.671999 80.1109 0.735999 80.2229 0.863999C80.3509 0.975999 80.4149 1.12 80.4149 1.296L80.6549 9.84H81.3989ZM97.6282 17.448C97.6762 17.544 97.7002 17.624 97.7002 17.688C97.7002 17.864 97.6282 18 97.4842 18.096C97.3402 18.192 97.1642 18.24 96.9562 18.24C96.6522 18.24 96.4602 18.112 96.3802 17.856L95.1322 13.728L87.7162 13.68L86.3962 17.76C86.3162 18.048 86.1162 18.192 85.7962 18.192C85.6042 18.192 85.4362 18.144 85.2922 18.048C85.1642 17.952 85.1002 17.824 85.1002 17.664C85.1002 17.648 85.1162 17.576 85.1482 17.448C86.4602 13.544 87.5482 10.272 88.4122 7.632L89.7562 3.6C90.0762 2.656 90.3722 1.976 90.6442 1.56C90.9162 1.144 91.2442 0.935999 91.6282 0.935999C91.9802 0.935999 92.2842 1.128 92.5402 1.512C92.7962 1.88 93.0602 2.496 93.3322 3.36C94.2762 6.384 95.2042 9.416 96.1162 12.456H96.8362C97.0122 12.456 97.1562 12.52 97.2682 12.648C97.3802 12.76 97.4362 12.904 97.4362 13.08C97.4362 13.512 97.2522 13.728 96.8842 13.728H96.5002L97.6282 17.448ZM94.7722 12.432L92.3722 4.296C92.2122 3.736 92.0602 3.296 91.9162 2.976C91.7722 2.656 91.6522 2.496 91.5562 2.496C91.4762 2.496 91.3722 2.648 91.2442 2.952C91.1322 3.24 90.9722 3.696 90.7642 4.32L88.1482 12.36L94.7722 12.432ZM113.087 9.888C113.119 12.672 113.135 15.192 113.135 17.448C113.135 17.848 112.919 18.048 112.487 18.048C112.263 18.048 112.095 17.992 111.983 17.88C111.887 17.768 111.839 17.592 111.839 17.352V14.928C111.359 15.824 110.647 16.552 109.703 17.112C108.775 17.656 107.695 17.928 106.463 17.928C105.151 17.928 104.079 17.624 103.247 17.016C102.431 16.408 101.847 15.64 101.495 14.712C101.143 13.784 100.967 12.792 100.967 11.736C100.967 10.6 100.975 9.608 100.991 8.76C101.007 7.896 101.023 7.176 101.039 6.6C101.103 4.52 101.135 2.896 101.135 1.728C101.135 1.36 101.343 1.176 101.759 1.176C102.207 1.176 102.431 1.376 102.431 1.776C102.431 2.544 102.415 3.408 102.383 4.368C102.367 5.328 102.359 6.048 102.359 6.528C102.311 8.304 102.287 10.04 102.287 11.736C102.287 13.32 102.663 14.544 103.415 15.408C104.167 16.272 105.231 16.704 106.607 16.704C107.679 16.704 108.607 16.448 109.391 15.936C110.175 15.408 110.767 14.76 111.167 13.992C111.583 13.208 111.791 12.448 111.791 11.712L111.743 7.656C111.743 6.6 111.727 4.6 111.695 1.656C111.695 1.448 111.735 1.288 111.815 1.176C111.911 1.064 112.071 1.008 112.295 1.008C112.759 1.008 112.991 1.232 112.991 1.68C112.991 3.552 113.015 5.664 113.063 8.016L113.087 9.888ZM121.43 17.952C120.31 17.952 119.342 17.728 118.526 17.28C117.726 16.816 117.118 16.2 116.702 15.432C116.302 14.664 116.102 13.816 116.102 12.888C116.102 12.44 116.318 12.216 116.75 12.216C117.182 12.216 117.398 12.408 117.398 12.792C117.398 14.024 117.766 14.992 118.502 15.696C119.238 16.4 120.214 16.752 121.43 16.752C122.486 16.752 123.334 16.504 123.974 16.008C124.63 15.496 124.958 14.768 124.958 13.824C124.958 12.832 124.606 12.072 123.902 11.544C123.214 11 122.19 10.536 120.83 10.152C119.966 9.912 119.206 9.656 118.55 9.384C117.91 9.096 117.334 8.648 116.822 8.04C116.31 7.432 116.054 6.632 116.054 5.64C116.054 4.744 116.286 3.944 116.75 3.24C117.214 2.536 117.838 1.992 118.622 1.608C119.406 1.224 120.254 1.032 121.166 1.032C122.174 1.032 123.054 1.248 123.806 1.68C124.558 2.096 125.126 2.656 125.51 3.36C125.91 4.048 126.11 4.784 126.11 5.568C126.11 6.016 125.902 6.24 125.486 6.24C125.054 6.24 124.838 6.04 124.838 5.64C124.838 4.664 124.494 3.856 123.806 3.216C123.134 2.576 122.254 2.256 121.166 2.256C119.998 2.256 119.07 2.576 118.382 3.216C117.694 3.856 117.35 4.664 117.35 5.64C117.35 6.328 117.534 6.888 117.902 7.32C118.27 7.736 118.734 8.064 119.294 8.304C119.854 8.544 120.622 8.808 121.598 9.096C122.43 9.336 123.166 9.616 123.806 9.936C124.446 10.24 125.014 10.712 125.51 11.352C126.006 11.992 126.254 12.808 126.254 13.8C126.254 15.064 125.806 16.072 124.91 16.824C124.014 17.576 122.854 17.952 121.43 17.952Z" fill="#616161"/>
</svg>
