<svg width="50" height="50" viewBox="0 0 50 50" fill="none" xmlns="http://www.w3.org/2000/svg">
<path d="M45 35.3125C44.5833 37.5 42.8125 39.1667 40.625 39.4792C37.1875 40 31.4583 40.625 25 40.625C18.6458 40.625 12.9167 40 9.37499 39.4792C7.18749 39.1667 5.41666 37.5 4.99999 35.3125C4.58332 32.9167 4.16666 29.375 4.16666 25C4.16666 20.625 4.58332 17.0833 4.99999 14.6875C5.41666 12.5 7.18749 10.8333 9.37499 10.5208C12.8125 10 18.5417 9.375 25 9.375C31.4583 9.375 37.0833 10 40.625 10.5208C42.8125 10.8333 44.5833 12.5 45 14.6875C45.4167 17.0833 45.9375 20.625 45.9375 25C45.8333 29.375 45.4167 32.9167 45 35.3125Z" fill="#FF3D00"/>
<path d="M20.8333 32.2916V17.7083L33.3333 24.9999L20.8333 32.2916Z" fill="white"/>
</svg>
