<svg width="50" height="50" viewBox="0 0 50 50" fill="none" xmlns="http://www.w3.org/2000/svg">
<path d="M43.75 38.5417C43.75 41.4187 41.4187 43.75 38.5417 43.75H11.4583C8.58229 43.75 6.25 41.4187 6.25 38.5417V11.4583C6.25 8.58125 8.58229 6.25 11.4583 6.25H38.5417C41.4187 6.25 43.75 8.58125 43.75 11.4583V38.5417Z" fill="#3F51B5"/>
<path d="M35.8 26.0417H32.2917V39.5834H27.0833V26.0417H23.9583V21.8751H27.0833V19.3647C27.0854 15.7105 28.6031 13.5417 32.9083 13.5417H36.4583V17.7084H34.0761C32.4 17.7084 32.2917 18.3334 32.2917 19.5032V21.8751H36.4583L35.8 26.0417Z" fill="white"/>
</svg>
