<svg width="50" height="50" viewBox="0 0 50 50" fill="none" xmlns="http://www.w3.org/2000/svg">
<path d="M35.4344 43.7395L14.6011 43.7593C10.0177 43.7635 6.2646 40.0176 6.25939 35.4343L6.2396 14.601C6.23543 10.0176 9.98126 6.26451 14.5646 6.2593L35.3979 6.23951C39.9813 6.23534 43.7344 9.98117 43.7396 14.5645L43.7594 35.3978C43.7646 39.9822 40.0177 43.7353 35.4344 43.7395Z" fill="url(#paint0_radial_46_260)"/>
<path d="M35.4344 43.7395L14.6011 43.7593C10.0177 43.7635 6.2646 40.0176 6.25939 35.4343L6.2396 14.601C6.23543 10.0176 9.98126 6.26451 14.5646 6.2593L35.3979 6.23951C39.9813 6.23534 43.7344 9.98117 43.7396 14.5645L43.7594 35.3978C43.7646 39.9822 40.0177 43.7353 35.4344 43.7395Z" fill="url(#paint1_radial_46_260)"/>
<path d="M25 32.2916C20.9802 32.2916 17.7083 29.0208 17.7083 24.9999C17.7083 20.9791 20.9802 17.7083 25 17.7083C29.0198 17.7083 32.2917 20.9791 32.2917 24.9999C32.2917 29.0208 29.0198 32.2916 25 32.2916ZM25 19.7916C22.1281 19.7916 19.7917 22.128 19.7917 24.9999C19.7917 27.8718 22.1281 30.2083 25 30.2083C27.8719 30.2083 30.2083 27.8718 30.2083 24.9999C30.2083 22.128 27.8719 19.7916 25 19.7916Z" fill="white"/>
<path d="M32.8125 18.75C33.6754 18.75 34.375 18.0504 34.375 17.1875C34.375 16.3246 33.6754 15.625 32.8125 15.625C31.9496 15.625 31.25 16.3246 31.25 17.1875C31.25 18.0504 31.9496 18.75 32.8125 18.75Z" fill="white"/>
<path d="M31.25 38.5416H18.75C14.7302 38.5416 11.4583 35.2708 11.4583 31.2499V18.7499C11.4583 14.7291 14.7302 11.4583 18.75 11.4583H31.25C35.2698 11.4583 38.5417 14.7291 38.5417 18.7499V31.2499C38.5417 35.2708 35.2698 38.5416 31.25 38.5416ZM18.75 13.5416C15.8781 13.5416 13.5417 15.878 13.5417 18.7499V31.2499C13.5417 34.1218 15.8781 36.4583 18.75 36.4583H31.25C34.1219 36.4583 36.4583 34.1218 36.4583 31.2499V18.7499C36.4583 15.878 34.1219 13.5416 31.25 13.5416H18.75Z" fill="white"/>
<defs>
<radialGradient id="paint0_radial_46_260" cx="0" cy="0" r="1" gradientUnits="userSpaceOnUse" gradientTransform="translate(20.1875 43.7864) scale(46.7698)">
<stop stop-color="#FFDD55"/>
<stop offset="0.328" stop-color="#FF543F"/>
<stop offset="0.348" stop-color="#FC5245"/>
<stop offset="0.504" stop-color="#E64771"/>
<stop offset="0.643" stop-color="#D53E91"/>
<stop offset="0.761" stop-color="#CC39A4"/>
<stop offset="0.841" stop-color="#C837AB"/>
</radialGradient>
<radialGradient id="paint1_radial_46_260" cx="0" cy="0" r="1" gradientUnits="userSpaceOnUse" gradientTransform="translate(12.2771 5.77107) scale(31.0552 20.6921)">
<stop stop-color="#4168C9"/>
<stop offset="0.999" stop-color="#4168C9" stop-opacity="0"/>
</radialGradient>
</defs>
</svg>
