<svg width="64" height="64" viewBox="0 0 64 64" fill="none" xmlns="http://www.w3.org/2000/svg">
<path d="M47.1923 9.00009L38.8838 9.00009C38.7088 9.02509 38.5487 9.11237 38.4329 9.24592C38.317 9.37946 38.2533 9.5503 38.2533 9.72708C38.2533 9.90385 38.317 10.0747 38.4329 10.2082C38.5487 10.3418 38.7088 10.4291 38.8838 10.4541L40.1171 10.4671L38.1828 24.0073L34.1194 30.0959C34.0307 30.2103 33.9889 30.3542 34.0025 30.4983L34.0025 52.4899C33.9991 52.9716 34.0915 53.4492 34.2742 53.8949C34.457 54.3406 34.7265 54.7456 35.0672 55.0862C35.4078 55.4269 35.8127 55.6964 36.2585 55.8792C36.7042 56.0619 37.1818 56.1543 37.6635 56.1508H48.4126C48.8943 56.1543 49.3719 56.0619 49.8176 55.8792C50.2633 55.6964 50.6683 55.4269 51.0089 55.0862C51.3495 54.7456 51.6191 54.3406 51.8018 53.8949C51.9846 53.4492 52.077 52.9716 52.0735 52.4899V30.4983C52.0872 30.3542 52.0454 30.2103 51.9567 30.0959L47.8933 24.0073L45.959 10.4671L47.1923 10.4541C47.2882 10.4556 47.3834 10.4378 47.4722 10.4018C47.5611 10.3657 47.6418 10.3122 47.7097 10.2444C47.7775 10.1766 47.831 10.0959 47.867 10.007C47.903 9.91816 47.9208 9.82296 47.9193 9.72708C47.9208 9.6312 47.903 9.536 47.867 9.44713C47.831 9.35826 47.7775 9.27752 47.7097 9.20972C47.6418 9.14191 47.5611 9.08842 47.4722 9.05241C47.3834 9.0164 47.2882 8.9986 47.1923 9.00009ZM50.6066 48.4525L35.4695 48.4525L35.4695 35.3926H50.6066V48.4525ZM50.6195 52.4899C50.6111 53.0726 50.3758 53.629 49.9638 54.0411C49.5517 54.4531 48.9953 54.6884 48.4126 54.6969H37.6635C37.0793 54.693 36.5202 54.4593 36.1071 54.0462C35.6941 53.6332 35.4603 53.0741 35.4565 52.4899L35.4695 49.9324H50.6066L50.6195 52.4899ZM46.4653 24.3708C46.4767 24.479 46.5171 24.5822 46.5821 24.6694L50.6066 30.719V33.9126H35.4695V30.719L39.4939 24.6694C39.559 24.5822 39.5994 24.479 39.6108 24.3708L41.597 10.4671L44.479 10.4671L46.4653 24.3708Z" fill="#616161"/>
<path d="M43.0606 45.12C42.1456 45.12 41.4556 44.775 41.4556 44.085C41.4556 43.395 42.1456 43.05 43.0606 43.05C43.9606 43.05 44.6656 43.395 44.6656 44.085C44.6656 44.775 43.9606 45.12 43.0606 45.12ZM43.0606 41.385C40.9756 41.385 39.4306 42.51 39.4306 44.085C39.4306 45.66 40.9756 46.77 43.0606 46.77C45.1456 46.77 46.6756 45.66 46.6756 44.085C46.6756 42.51 45.1456 41.385 43.0606 41.385ZM44.0506 39.075V37.38H42.0706V39.075H38.4856V40.68H47.5906V39.075H44.0506Z" fill="#FF8F00"/>
<path d="M22.0206 19.34H20.0406V21.395C20.0406 23.39 18.8256 25.115 16.0056 25.7L16.9356 27.26C18.9006 26.795 20.2806 25.775 21.0306 24.38C21.7656 25.775 23.1456 26.795 25.1256 27.26L26.0556 25.7C23.2356 25.115 22.0206 23.39 22.0206 21.395V19.34Z" fill="#FF8F00"/>
<path d="M16.8838 56.1509L25.1923 56.1509C25.3673 56.1259 25.5274 56.0386 25.6432 55.905C25.759 55.7715 25.8228 55.6006 25.8228 55.4239C25.8228 55.2471 25.759 55.0762 25.6432 54.9427C25.5274 54.8092 25.3673 54.7219 25.1923 54.6969L23.959 54.6839L25.8933 41.1436L29.9567 35.055C30.0454 34.9406 30.0872 34.7967 30.0735 34.6526L30.0735 12.661C30.0769 12.1793 29.9846 11.7017 29.8018 11.256C29.6191 10.8103 29.3495 10.4054 29.0089 10.0647C28.6683 9.72408 28.2633 9.45455 27.8176 9.27178C27.3719 9.08902 26.8943 8.99667 26.4126 9.0001L15.6635 9.00009C15.1817 8.99667 14.7041 9.08902 14.2584 9.27178C13.8127 9.45455 13.4078 9.72408 13.0671 10.0647C12.7265 10.4053 12.457 10.8103 12.2742 11.256C12.0914 11.7017 11.9991 12.1793 12.0025 12.661L12.0025 34.6526C11.9889 34.7967 12.0306 34.9406 12.1194 35.055L16.1827 41.1436L18.1171 54.6839L16.8838 54.6969C16.7879 54.6954 16.6927 54.7132 16.6038 54.7492C16.5149 54.7852 16.4342 54.8387 16.3664 54.9065C16.2986 54.9743 16.2451 55.055 16.2091 55.1439C16.1731 55.2328 16.1553 55.328 16.1568 55.4239C16.1553 55.5197 16.1731 55.6149 16.2091 55.7038C16.2451 55.7927 16.2986 55.8734 16.3664 55.9412C16.4342 56.009 16.5149 56.0625 16.6038 56.0985C16.6927 56.1345 16.7879 56.1523 16.8838 56.1509ZM13.4695 16.6984L28.6065 16.6984L28.6065 29.7584L13.4695 29.7584L13.4695 16.6984ZM13.4565 12.661C13.465 12.0784 13.7002 11.5219 14.1123 11.1099C14.5244 10.6978 15.0808 10.4626 15.6635 10.4541L26.4126 10.4541C26.9967 10.4579 27.5559 10.6916 27.9689 11.1047C28.382 11.5178 28.6157 12.0769 28.6195 12.661L28.6065 15.2185L13.4695 15.2185L13.4565 12.661ZM17.6108 40.7801C17.5993 40.6719 17.559 40.5688 17.4939 40.4815L13.4695 34.4319L13.4695 31.2383L28.6065 31.2383L28.6065 34.4319L24.5821 40.4815C24.5171 40.5688 24.4767 40.6719 24.4653 40.7801L22.479 54.6839L19.597 54.6839L17.6108 40.7801Z" fill="#616161"/>
</svg>
